{"title":"This.Means.War.2012.TS.XviD-SiC","uid":7044980,"size":744329808,"categoryP":"video","categoryS":"movies","magnet":"?xt=urn:btih:40438620753f2321758d8cd17a526306117d4587&amp;dn=This.Means.War.2012.TS.XviD-SiC&amp;tr=udp%3A%2F%2Ftracker.openbittorrent.com%3A80&amp;tr=udp%3A%2F%2Fopen.demonii.com%3A1337&amp;tr=udp%3A%2F%2Ftracker.coppersurfer.tk%3A6969&amp;tr=udp%3A%2F%2Fexodus.desync.com%3A6969","seeders":0,"leechers":1,"uploader":"MisterNobody","files":4,"time":1329710894,"description":"This.Means.War.2012.TS.XviD-SiC\n  &lt;a href=&quot;\nhttp://www.imdb.com/title/tt1596350/&quot; rel=&quot;nofollow&quot; target=&quot;_NEW&quot;&gt;\nhttp://www.imdb.com/title/tt1596350/&lt;/a&gt;\n \nTwo top CIA operatives wage an epic battle\nagainst one another after they discover\nthey are dating the same woman.\n \nVideo\nID : 0\nFormat : MPEG-4 Visual\nFormat profile : Advanced Simple@L5\nFormat settings, BVOP : 2\nFormat settings, QPel : No\nFormat settings, GMC : No warppoints\nFormat settings, Matrix : Default (H.263)\nMuxing mode : Packed bitstream\nCodec ID : XVID\nCodec ID/Hint : XviD\nDuration : 1h 31mn\nBit rate : 937 Kbps\nWidth : 680 pixels\nHeight : 252 pixels\nDisplay aspect ratio : 2.698\nFrame rate : 25.000 fps\nColor space : YUV\nChroma subsampling : 4:2:0\nBit depth : 8 bits\nScan type : Progressive\nCompression mode : Lossy\nBits/(Pixel*Frame) : 0.219\nStream size : 613 MiB (87%)\nWriting library : XviD 64\n \nAudio\nID : 1\nFormat : MPEG Audio\nFormat version : Version 1\nFormat profile : Layer 3\nMode : Joint stereo\nMode extension : MS Stereo\nCodec ID : 55\nCodec ID/Hint : MP3\nDuration : 1h 31mn\nBit rate mode : Constant\nBit rate : 128 Kbps\nChannel(s) : 2 channels\nSampling rate : 44.1 KHz\nCompression mode : Lossy\nStream size : 83.7 MiB (12%)\nAlignment : Split accross interleaves\nInterleave, duration : 40 ms (1.00 video frame)","torrent":{"xt":"urn:btih:40438620753f2321758d8cd17a526306117d4587","amp;dn":"This.Means.War.2012.TS.XviD-SiC","amp;tr":["udp%3A%2F%2Ftracker.openbittorrent.com%3A80","udp%3A%2F%2Fopen.demonii.com%3A1337","udp%3A%2F%2Ftracker.coppersurfer.tk%3A6969","udp%3A%2F%2Fexodus.desync.com%3A6969"],"infoHash":"40438620753f2321758d8cd17a526306117d4587","infoHashBuffer":{"type":"Buffer","data":[64,67,134,32,117,63,35,33,117,141,140,209,122,82,99,6,17,125,69,135]},"announce":[],"urlList":[]}}